<svg width="240" height="240" viewBox="0 0 240 240" fill="none" xmlns="http://www.w3.org/2000/svg">
  <rect width="240" height="240" rx="48" fill="#FFF4E8"/>
  <circle cx="120" cy="120" r="74" fill="#A14B1F"/>
  <circle cx="120" cy="120" r="58" fill="#F7E8D9"/>
  <path d="M100 90C100 78 110 68 122 68C134 68 144 78 144 90C144 103 136 112 130 122C124 132 122 142 122 152V160H100V152C100 142 98 132 92 122C86 112 100 103 100 90Z" fill="#2F1D14"/>
  <path d="M96 92C96 76 106 62 122 62C138 62 148 76 148 92C148 106 140 116 132 126C124 136 120 144 120 154H108C108 144 104 136 96 126C88 116 96 106 96 92Z" fill="#D48F49"/>
  <rect x="70" y="176" width="100" height="12" rx="6" fill="#2F1D14"/>
  <path d="M70 176C84 158 94 150 120 150C146 150 156 158 170 176" stroke="#2F1D14" stroke-width="8" stroke-linecap="round"/>
  <text x="120" y="206" text-anchor="middle" font-family="Segoe UI, Arial, sans-serif" font-size="24" font-weight="700" fill="#2F1D14">Cookie Tartare</text>
</svg>
